<svg width="24" height="24" viewBox="0 0 24 24" fill="none" xmlns="http://www.w3.org/2000/svg">
  <path d="M12 2C13.1 2 14 2.9 14 4C14 5.1 13.1 6 12 6C10.9 6 10 5.1 10 4C10 2.9 10.9 2 12 2ZM21 9H15L13.5 7.5C13.1 7.1 12.6 6.9 12 6.9S10.9 7.1 10.5 7.5L9 9H3C1.9 9 1 9.9 1 11V20C1 21.1 1.9 22 3 22H21C22.1 22 23 21.1 23 20V11C23 9.9 22.1 9 21 9ZM21 20H3V11H21V20ZM16 15.5C16 17.4 14.4 19 12.5 19S9 17.4 9 15.5 10.6 12 12.5 12 16 13.6 16 15.5ZM12.5 17C13.3 17 14 16.3 14 15.5S13.3 14 12.5 14 11 14.7 11 15.5 11.7 17 12.5 17Z" fill="currentColor"/>
</svg>